<svg width="61" height="60" viewBox="0 0 61 60" fill="none" xmlns="http://www.w3.org/2000/svg">
<path d="M20.3333 42C20.1645 42.0004 19.9971 41.9687 19.84 41.9067C19.5919 41.8079 19.3792 41.6368 19.2294 41.4158C19.0797 41.1947 18.9997 40.9337 19 40.6667V19.3333C19 18.9797 19.1405 18.6406 19.3905 18.3905C19.6406 18.1405 19.9797 18 20.3333 18H41.6667C42.0203 18 42.3594 18.1405 42.6095 18.3905C42.8595 18.6406 43 18.9797 43 19.3333V23.3333C43 23.687 42.8595 24.0261 42.6095 24.2761C42.3594 24.5262 42.0203 24.6667 41.6667 24.6667C41.313 24.6667 40.9739 24.5262 40.7239 24.2761C40.4738 24.0261 40.3333 23.687 40.3333 23.3333V20.6667H21.6667V37.3067L24.3333 34.4267C24.4622 34.2876 24.6192 34.1776 24.794 34.104C24.9687 34.0304 25.1571 33.995 25.3467 34H40.3333V28.6667C40.3333 28.313 40.4738 27.9739 40.7239 27.7239C40.9739 27.4738 41.313 27.3333 41.6667 27.3333C42.0203 27.3333 42.3594 27.4738 42.6095 27.7239C42.8595 27.9739 43 28.313 43 28.6667V35.3333C43 35.687 42.8595 36.0261 42.6095 36.2761C42.3594 36.5262 42.0203 36.6667 41.6667 36.6667H25.92L21.3067 41.5733C21.1823 41.7074 21.0318 41.8144 20.8643 41.8878C20.6969 41.9612 20.5162 41.9994 20.3333 42Z" fill="#4E7D96"/>
<path d="M36.333 26.0002H25.6663C25.3127 26.0002 24.9736 25.8597 24.7235 25.6096C24.4735 25.3596 24.333 25.0205 24.333 24.6668C24.333 24.3132 24.4735 23.9741 24.7235 23.724C24.9736 23.474 25.3127 23.3335 25.6663 23.3335H36.333C36.6866 23.3335 37.0258 23.474 37.2758 23.724C37.5259 23.9741 37.6663 24.3132 37.6663 24.6668C37.6663 25.0205 37.5259 25.3596 37.2758 25.6096C37.0258 25.8597 36.6866 26.0002 36.333 26.0002ZM36.333 31.3335H25.6663C25.3127 31.3335 24.9736 31.193 24.7235 30.943C24.4735 30.6929 24.333 30.3538 24.333 30.0002C24.333 29.6465 24.4735 29.3074 24.7235 29.0574C24.9736 28.8073 25.3127 28.6668 25.6663 28.6668H36.333C36.6866 28.6668 37.0258 28.8073 37.2758 29.0574C37.5259 29.3074 37.6663 29.6465 37.6663 30.0002C37.6663 30.3538 37.5259 30.6929 37.2758 30.943C37.0258 31.193 36.6866 31.3335 36.333 31.3335Z" fill="#4E7D96"/>
<rect x="35" y="1" width="26" height="26" rx="5" fill="#FF844B"/>
<path d="M44.91 17.362L46.884 15.36C47.3973 14.828 47.78 14.4127 48.032 14.114C48.284 13.8153 48.466 13.54 48.578 13.288C48.6993 13.036 48.76 12.7653 48.76 12.476C48.76 12.056 48.648 11.7573 48.424 11.58C48.2093 11.3933 47.8827 11.3 47.444 11.3C46.828 11.3 46.1467 11.356 45.4 11.468L45.064 11.51L44.966 10.012C45.8807 9.732 46.828 9.592 47.808 9.592C49.768 9.592 50.748 10.474 50.748 12.238C50.748 12.7047 50.6827 13.12 50.552 13.484C50.4307 13.8387 50.2207 14.2027 49.922 14.576C49.6327 14.94 49.2173 15.3693 48.676 15.864L47.066 17.32H50.902V19H44.91V17.362Z" fill="white"/>
</svg>
