<svg width="61" height="60" viewBox="0 0 61 60" fill="none" xmlns="http://www.w3.org/2000/svg">
<path d="M43 27.3332C42.9962 26.1538 42.6015 25.0089 41.8778 24.0777C41.154 23.1464 40.142 22.4814 39 22.1865V19.3332C38.9997 19.1182 38.9473 18.9065 38.8475 18.7162C38.7477 18.5258 38.6033 18.3624 38.4267 18.2399C38.2519 18.1182 38.0506 18.0403 37.8395 18.0124C37.6284 17.9846 37.4137 18.0077 37.2134 18.0799L25.5734 22.3065L20.4134 21.9999C20.2309 21.9881 20.048 22.014 19.8759 22.0759C19.7039 22.1378 19.5465 22.2345 19.4134 22.3599C19.2817 22.4853 19.1772 22.6364 19.1061 22.8038C19.035 22.9712 18.9989 23.1513 19 23.3332V32.6665C19.0003 32.8558 19.0408 33.0429 19.119 33.2153C19.1971 33.3878 19.3111 33.5416 19.4534 33.6665C19.5945 33.79 19.76 33.8823 19.9392 33.9374C20.1184 33.9926 20.3073 34.0093 20.4934 33.9865L22.24 33.7732L23.4934 40.8932C23.5473 41.2062 23.7113 41.4897 23.9557 41.6926C24.2002 41.8955 24.509 42.0045 24.8267 41.9999H29.6667C29.8613 42.0024 30.0541 41.9622 30.2315 41.8823C30.4089 41.8024 30.5667 41.6846 30.6938 41.5372C30.8208 41.3898 30.9141 41.2164 30.967 41.0291C31.0199 40.8419 31.0312 40.6453 31 40.4532L30.0134 34.5865L37.3067 36.6665C37.4259 36.6859 37.5475 36.6859 37.6667 36.6665C38.0203 36.6665 38.3595 36.526 38.6095 36.276C38.8595 36.0259 39 35.6868 39 35.3332V32.4799C40.142 32.185 41.154 31.5199 41.8778 30.5887C42.6015 29.6575 42.9962 28.5126 43 27.3332ZM21.6667 24.7465L24.3334 24.8932V30.8265L21.6667 31.1599V24.7465ZM28.0934 39.3332H25.9334L24.8934 33.4399L25.5734 33.3599L27.1734 33.7999L28.0934 39.3332ZM36.3334 33.5732L29.0667 31.5599C28.8497 31.4141 28.5947 31.3352 28.3334 31.3332L27 30.9599V24.6665L36.3334 21.2799V33.5732ZM39 29.5732V25.0399C39.398 25.276 39.7276 25.6116 39.9566 26.0136C40.1855 26.4157 40.3059 26.8705 40.3059 27.3332C40.3059 27.7959 40.1855 28.2506 39.9566 28.6527C39.7276 29.0548 39.398 29.3904 39 29.6265V29.5732Z" fill="#4E7D96"/>
<rect x="35" y="1" width="26" height="26" rx="5" fill="#FF844B"/>
<path d="M44.91 17.362L46.884 15.36C47.3973 14.828 47.78 14.4127 48.032 14.114C48.284 13.8153 48.466 13.54 48.578 13.288C48.6993 13.036 48.76 12.7653 48.76 12.476C48.76 12.056 48.648 11.7573 48.424 11.58C48.2093 11.3933 47.8827 11.3 47.444 11.3C46.828 11.3 46.1467 11.356 45.4 11.468L45.064 11.51L44.966 10.012C45.8807 9.732 46.828 9.592 47.808 9.592C49.768 9.592 50.748 10.474 50.748 12.238C50.748 12.7047 50.6827 13.12 50.552 13.484C50.4307 13.8387 50.2207 14.2027 49.922 14.576C49.6327 14.94 49.2173 15.3693 48.676 15.864L47.066 17.32H50.902V19H44.91V17.362Z" fill="white"/>
</svg>
