<svg width="32" height="32" viewBox="0 0 32 32" fill="none" xmlns="http://www.w3.org/2000/svg">
<path d="M28.093 22.4399L25.333 19.6133C24.7393 19.0489 23.9904 18.675 23.1826 18.5396C22.3748 18.4042 21.5449 18.5134 20.7997 18.8533L19.5997 17.6533C21.0137 15.7638 21.6595 13.4088 21.407 11.0624C21.1546 8.71591 20.0226 6.55222 18.2389 5.00686C16.4552 3.46149 14.1524 2.6492 11.7939 2.7335C9.43539 2.8178 7.19639 3.79244 5.52762 5.46121C3.85885 7.12999 2.88421 9.36898 2.79991 11.7275C2.7156 14.086 3.5279 16.3888 5.07326 18.1725C6.61863 19.9562 8.78232 21.0882 11.1288 21.3406C13.4752 21.5931 15.8302 20.9473 17.7197 19.5333L18.9063 20.7199C18.5264 21.4661 18.3903 22.3127 18.5171 23.1403C18.6439 23.968 19.0272 24.735 19.613 25.3333L22.4397 28.1599C23.1897 28.909 24.2063 29.3297 25.2663 29.3297C26.3263 29.3297 27.343 28.909 28.093 28.1599C28.474 27.7874 28.7767 27.3425 28.9834 26.8514C29.19 26.3602 29.2965 25.8328 29.2965 25.2999C29.2965 24.7671 29.19 24.2396 28.9834 23.7485C28.7767 23.2573 28.474 22.8124 28.093 22.4399ZM16.7863 16.7866C15.8533 17.7173 14.6654 18.3505 13.3726 18.6064C12.0799 18.8623 10.7403 18.7293 9.52313 18.2242C8.30594 17.7191 7.26574 16.8646 6.53394 15.7686C5.80215 14.6727 5.41158 13.3844 5.41158 12.0666C5.41158 10.7488 5.80215 9.4605 6.53394 8.36454C7.26574 7.26858 8.30594 6.41408 9.52313 5.90901C10.7403 5.40393 12.0799 5.27092 13.3726 5.52679C14.6654 5.78266 15.8533 6.41592 16.7863 7.34659C17.4072 7.96586 17.8997 8.70154 18.2358 9.51147C18.5719 10.3214 18.7449 11.1897 18.7449 12.0666C18.7449 12.9435 18.5719 13.8118 18.2358 14.6217C17.8997 15.4316 17.4072 16.1673 16.7863 16.7866ZM26.213 26.2133C26.089 26.3382 25.9416 26.4374 25.7791 26.5051C25.6166 26.5728 25.4423 26.6077 25.2663 26.6077C25.0903 26.6077 24.916 26.5728 24.7536 26.5051C24.5911 26.4374 24.4436 26.3382 24.3197 26.2133L21.493 23.3866C21.368 23.2626 21.2688 23.1152 21.2011 22.9527C21.1334 22.7902 21.0986 22.6159 21.0986 22.4399C21.0986 22.2639 21.1334 22.0896 21.2011 21.9272C21.2688 21.7647 21.368 21.6172 21.493 21.4933C21.6169 21.3683 21.7644 21.2691 21.9269 21.2014C22.0894 21.1337 22.2636 21.0989 22.4397 21.0989C22.6157 21.0989 22.79 21.1337 22.9524 21.2014C23.1149 21.2691 23.2624 21.3683 23.3863 21.4933L26.213 24.3199C26.338 24.4439 26.4372 24.5913 26.5048 24.7538C26.5725 24.9163 26.6074 25.0906 26.6074 25.2666C26.6074 25.4426 26.5725 25.6169 26.5048 25.7794C26.4372 25.9418 26.338 26.0893 26.213 26.2133Z" fill="#FF844B"/>
</svg>
