<svg width="60" height="60" viewBox="0 0 60 60" fill="none" xmlns="http://www.w3.org/2000/svg">
<path d="M42.427 27.2309L39.907 26.424L41.0937 24.1444C41.214 23.9058 41.2542 23.6372 41.2088 23.3757C41.1634 23.1142 41.0347 22.8726 40.8403 22.6844L38.0003 19.9565C37.8033 19.767 37.5494 19.6417 37.2744 19.598C36.9993 19.5544 36.717 19.5946 36.467 19.7131L34.0937 20.853L33.2537 18.4324C33.1649 18.1801 32.9966 17.9606 32.7719 17.8045C32.5473 17.6485 32.2776 17.5635 32.0003 17.5615H28.0003C27.7208 17.5608 27.4481 17.6445 27.2208 17.8008C26.9935 17.9571 26.8231 18.178 26.7337 18.4324L25.8937 20.853L23.5203 19.7131C23.2719 19.5976 22.9923 19.5589 22.72 19.6025C22.4478 19.6461 22.1963 19.7698 22.0003 19.9565L19.1603 22.6844C18.9631 22.8736 18.8326 23.1175 18.7872 23.3817C18.7417 23.6458 18.7836 23.9171 18.907 24.1572L20.0937 26.4369L17.5737 27.2437C17.311 27.3289 17.0825 27.4907 16.92 27.7064C16.7575 27.9222 16.6691 28.1813 16.667 28.4476V32.2897C16.6663 32.5582 16.7534 32.8201 16.9161 33.0384C17.0788 33.2568 17.3088 33.4205 17.5737 33.5064L20.0937 34.3132L18.907 36.5929C18.7867 36.8315 18.7465 37.1001 18.7918 37.3616C18.8372 37.6231 18.966 37.8647 19.1603 38.0529L22.0003 40.7808C22.1973 40.9703 22.4512 41.0956 22.7263 41.1393C23.0013 41.1829 23.2837 41.1427 23.5337 41.0242L25.907 39.8843L26.747 42.3049C26.8364 42.5592 27.0069 42.7802 27.2342 42.9365C27.4615 43.0927 27.7341 43.1764 28.0137 43.1757H32.0137C32.2932 43.1764 32.5659 43.0927 32.7932 42.9365C33.0205 42.7802 33.1909 42.5592 33.2803 42.3049L34.1203 39.8843L36.4937 41.0242C36.7405 41.1368 37.0174 41.1738 37.2869 41.1303C37.5564 41.0868 37.8054 40.9648 38.0003 40.7808L40.8403 38.0529C41.0375 37.8637 41.1681 37.6198 41.2135 37.3556C41.2589 37.0914 41.217 36.8202 41.0937 36.5801L39.907 34.3004L42.427 33.4936C42.6897 33.4084 42.9182 33.2466 43.0807 33.0308C43.2432 32.8151 43.3316 32.556 43.3337 32.2897V28.4476C43.3344 28.1791 43.2472 27.9172 43.0845 27.6988C42.9218 27.4805 42.6918 27.3168 42.427 27.2309ZM40.667 31.3676L39.067 31.8799C38.6991 31.9945 38.3615 32.1847 38.0777 32.4371C37.794 32.6896 37.5708 32.9983 37.4236 33.3419C37.2765 33.6855 37.2089 34.0557 37.2256 34.4269C37.2423 34.7981 37.3429 35.1614 37.5203 35.4915L38.2803 36.9515L36.8137 38.3603L35.3337 37.5918C34.9917 37.4282 34.6172 37.3371 34.2354 37.3246C33.8536 37.3121 33.4735 37.3785 33.1208 37.5194C32.768 37.6602 32.4509 37.8722 32.1909 38.1411C31.9309 38.4099 31.734 38.7292 31.6137 39.0775L31.0803 40.6143H28.9603L28.427 39.0775C28.3077 38.7241 28.1097 38.3998 27.8469 38.1273C27.584 37.8547 27.2626 37.6403 26.9049 37.4989C26.5472 37.3576 26.1617 37.2927 25.7753 37.3088C25.3889 37.3248 25.0107 37.4214 24.667 37.5918L23.147 38.3219L21.6803 36.9131L22.4803 35.4915C22.6578 35.1614 22.7584 34.7981 22.7751 34.4269C22.7918 34.0557 22.7242 33.6855 22.577 33.3419C22.4299 32.9983 22.2067 32.6896 21.9229 32.4371C21.6391 32.1847 21.3016 31.9945 20.9337 31.8799L19.3337 31.3676V29.3697L20.9337 28.8574C21.3016 28.7428 21.6391 28.5526 21.9229 28.3002C22.2067 28.0477 22.4299 27.739 22.577 27.3954C22.7242 27.0518 22.7918 26.6815 22.7751 26.3104C22.7584 25.9392 22.6578 25.5759 22.4803 25.2458L21.7203 23.8242L23.187 22.4154L24.667 23.1454C25.0107 23.3159 25.3889 23.4125 25.7753 23.4285C26.1617 23.4446 26.5472 23.3797 26.9049 23.2383C27.2626 23.097 27.584 22.8826 27.8469 22.61C28.1097 22.3374 28.3077 22.0132 28.427 21.6598L28.9603 20.1229H31.0403L31.5737 21.6598C31.693 22.0132 31.891 22.3374 32.1538 22.61C32.4166 22.8826 32.7381 23.097 33.0958 23.2383C33.4535 23.3797 33.8389 23.4446 34.2254 23.4285C34.6118 23.4125 34.99 23.3159 35.3337 23.1454L36.8537 22.4154L38.3203 23.8242L37.5203 25.2458C37.35 25.5742 37.2551 25.934 37.2421 26.3007C37.229 26.6674 37.2982 27.0326 37.4449 27.3714C37.5915 27.7102 37.8122 28.0148 38.0921 28.2645C38.372 28.5143 38.7044 28.7034 39.067 28.819L40.667 29.3313V31.3676ZM30.0003 25.2458C28.9455 25.2458 27.9144 25.5462 27.0373 26.1091C26.1602 26.6721 25.4766 27.4721 25.073 28.4082C24.6693 29.3443 24.5637 30.3743 24.7695 31.3681C24.9753 32.3618 25.4832 33.2746 26.2291 33.991C26.975 34.7075 27.9253 35.1954 28.9598 35.393C29.9944 35.5907 31.0668 35.4893 32.0413 35.1015C33.0158 34.7138 33.8488 34.0572 34.4348 33.2147C35.0209 32.3723 35.3337 31.3818 35.3337 30.3686C35.3337 29.01 34.7718 27.707 33.7716 26.7462C32.7714 25.7855 31.4148 25.2458 30.0003 25.2458ZM30.0003 32.9301C29.4729 32.9301 28.9573 32.7798 28.5188 32.4984C28.0803 32.2169 27.7385 31.8169 27.5366 31.3489C27.3348 30.8808 27.282 30.3658 27.3849 29.8689C27.4878 29.3721 27.7418 28.9157 28.1147 28.5574C28.4877 28.1992 28.9628 27.9553 29.4801 27.8564C29.9974 27.7576 30.5335 27.8083 31.0208 28.0022C31.5081 28.1961 31.9246 28.5244 32.2176 28.9456C32.5106 29.3668 32.667 29.862 32.667 30.3686C32.667 31.048 32.386 31.6995 31.8859 32.1798C31.3858 32.6602 30.7076 32.9301 30.0003 32.9301Z" fill="#4E7D96"/>
</svg>
